<!-- Generated by IcoMoon.io -->
<svg version="1.1" xmlns="http://www.w3.org/2000/svg" width="22" height="32" viewBox="0 0 22 32">
<title>mahomes15</title>
<path d="M12.035 31.985c-0.902-0.025-1.346-0.065-2.119-0.192-0.294-0.048-0.912-0.143-1.373-0.211-0.931-0.137-1.305-0.215-2.401-0.503-1.052-0.277-1.962-0.588-2.426-0.831-0.475-0.249-0.513-0.304-0.51-0.751 0.002-0.25 0.159-1.934 0.172-1.84 0.009 0.063 0.104-0.076 0.131-0.192l0.029-0.123 0.020 0.107c0.011 0.059 0.028 0.103 0.038 0.098s0.070-0.028 0.133-0.052c0.064-0.024 0.115-0.068 0.115-0.098-0.001-0.048-0.005-0.048-0.035-0.001-0.030 0.046-0.035 0.044-0.035-0.009-0.001-0.051 0.031-0.062 0.177-0.062 0.178 0 0.178 0 0.174-0.116-0.002-0.064-0.011-0.088-0.020-0.053s-0.039 0.062-0.066 0.062c-0.055 0-0.031-0.106 0.035-0.151 0.023-0.016 0.013-0.026-0.024-0.027-0.034-0-0.062-0.026-0.062-0.058s0.020-0.049 0.045-0.040c0.032 0.012 0.045-0.023 0.045-0.119 0-0.108-0.013-0.135-0.061-0.129-0.033 0.004-0.061-0.009-0.062-0.029s0.033-0.030 0.074-0.024c0.063 0.010 0.072-0.002 0.057-0.080-0.010-0.051-0.003-0.092 0.015-0.092s0.024-0.014 0.013-0.032c-0.028-0.046 0.057-0.071 0.169-0.049 0.058 0.011 0.096 0.002 0.096-0.021 0-0.022-0.046-0.040-0.101-0.040s-0.138-0.032-0.183-0.071c-0.062-0.054-0.069-0.071-0.026-0.071 0.045 0 0.054-0.032 0.043-0.16-0.007-0.088-0.021-0.173-0.031-0.188s0.013-0.031 0.051-0.034c0.046-0.003 0.069 0.018 0.069 0.064 0 0.038 0.016 0.069 0.036 0.069s0.036-0.032 0.036-0.071c0-0.039-0.014-0.071-0.032-0.071s-0.039-0.048-0.047-0.107c-0.009-0.059 0-0.107 0.021-0.107s0.005-0.024-0.033-0.052c-0.068-0.052-0.068-0.052 0.002-0.055 0.066-0.002 0.067-0.005 0.009-0.049-0.034-0.026-0.050-0.060-0.036-0.076s0.001-0.020-0.030-0.009c-0.031 0.011-0.079 0.006-0.107-0.012-0.038-0.024-0.031-0.032 0.030-0.032 0.066-0 0.080-0.020 0.080-0.11 0-0.121 0.055-0.247 0.108-0.247 0.019 0 0.034 0.022 0.034 0.050s0.028 0.060 0.062 0.073c0.050 0.019 0.053 0.015 0.018-0.021-0.024-0.025-0.045-0.074-0.045-0.109 0-0.056-0.020-0.061-0.147-0.041-0.118 0.019-0.144 0.014-0.129-0.026 0.010-0.027 0.036-0.046 0.058-0.041s0.040-0.007 0.040-0.027c0-0.020-0.024-0.036-0.053-0.036-0.076 0-0.065-0.041 0.038-0.139 0.068-0.064 0.1-0.075 0.131-0.044s0.030 0.041-0.002 0.041c-0.024 0-0.043 0.017-0.043 0.038s0.028 0.032 0.062 0.025c0.034-0.008 0.058-0.033 0.053-0.056s0.007-0.042 0.027-0.042c0.020 0 0.036-0.016 0.036-0.036s-0.032-0.036-0.071-0.036c-0.040 0-0.071-0.024-0.071-0.053s-0.016-0.053-0.036-0.053-0.036 0.022-0.036 0.050c0 0.027-0.023 0.058-0.051 0.069-0.042 0.016-0.044 0.001-0.014-0.085 0.027-0.079 0.059-0.105 0.126-0.105 0.076 0 0.083-0.008 0.046-0.053-0.036-0.043-0.035-0.054 0.005-0.055 0.027-0.001-0.005-0.048-0.072-0.104-0.072-0.061-0.112-0.124-0.101-0.154 0.011-0.028 0.004-0.067-0.014-0.086-0.022-0.022-0.021-0.070 0.003-0.132 0.020-0.054 0.028-0.112 0.017-0.13s-0.003-0.033 0.018-0.033c0.021 0 0.038-0.032 0.038-0.071 0-0.050 0.024-0.071 0.078-0.071 0.059 0 0.068-0.010 0.037-0.041-0.029-0.029-0.030-0.061-0.005-0.109 0.020-0.037 0.028-0.087 0.019-0.11s-0.019-0.015-0.020 0.020c-0.002 0.034-0.019 0.062-0.038 0.062-0.053 0-0.043-0.062 0.026-0.167 0.034-0.052 0.066-0.159 0.071-0.239 0.015-0.234 0.051-0.412 0.084-0.412 0.017 0 0.021 0.024 0.010 0.053-0.035 0.092 0.036 0.053 0.147-0.080l0.107-0.129-0.1 0.065c-0.093 0.061-0.104 0.061-0.159 0.006s-0.055-0.059 0.002-0.059c0.034 0 0.061-0.016 0.061-0.036s-0.013-0.036-0.029-0.036c-0.016 0-0.022-0.048-0.014-0.106 0.011-0.072 0.034-0.103 0.074-0.098 0.032 0.004 0.058-0.008 0.058-0.028s-0.020-0.033-0.045-0.031c-0.024 0.003-0.044-0.005-0.043-0.018 0.002-0.038 0.164-0.29 0.181-0.281 0.008 0.005 0.003-0.006-0.012-0.025-0.035-0.043-0.035-0.1-0.001-0.079 0.015 0.009 0.031-0.039 0.036-0.107 0.006-0.076-0.005-0.115-0.027-0.101-0.020 0.012-0.036 0.005-0.036-0.016s0.032-0.038 0.070-0.038c0.048 0 0.064-0.017 0.050-0.053s0.002-0.054 0.046-0.055c0.063-0.001 0.063-0.004 0.004-0.048-0.077-0.058-0.077-0.073-0.005-0.145 0.053-0.053 0.050-0.056-0.036-0.034-0.059 0.015-0.093 0.009-0.093-0.016 0-0.022 0.016-0.039 0.036-0.039s0.036-0.034 0.036-0.076c0-0.064 0.009-0.068 0.054-0.031 0.030 0.025 0.065 0.034 0.078 0.021s-0.011-0.048-0.054-0.078c-0.043-0.030-0.077-0.082-0.077-0.115 0.001-0.053 0.007-0.052 0.053 0.008 0.073 0.097 0.092 0.058 0.066-0.134-0.018-0.13-0.037-0.166-0.089-0.166-0.037 0-0.066-0.023-0.066-0.050s-0.010-0.080-0.021-0.116c-0.016-0.050-0.013-0.053 0.014-0.016 0.019 0.027 0.053 0.038 0.074 0.025 0.025-0.015 0.031-0.004 0.018 0.031s-0.001 0.055 0.032 0.055c0.076 0 0.102-0.093 0.054-0.196-0.029-0.064-0.030-0.112-0.002-0.173 0.026-0.056 0.027-0.097 0.003-0.12-0.037-0.036 0.092-0.146 0.237-0.203 0.047-0.018 0.056-0.034 0.025-0.045-0.025-0.009-0.104 0.011-0.175 0.044-0.123 0.059-0.131 0.058-0.177-0.003-0.026-0.036-0.047-0.078-0.047-0.094 0-0.046 0.064-0.033 0.082 0.016 0.012 0.031 0.034 0.023 0.073-0.027 0.055-0.070 0.056-0.070 0.058-0.002 0.001 0.054 0.011 0.060 0.044 0.027 0.024-0.023 0.072-0.043 0.107-0.043s0.064-0.014 0.064-0.031c0-0.036-0.122-0.074-0.24-0.075-0.044-0-0.080-0.018-0.080-0.040s0.031-0.032 0.071-0.021c0.039 0.010 0.071 0.004 0.071-0.014s0.032-0.032 0.071-0.032c0.071 0 0.073-0.008 0.086-0.276 0.002-0.036-0.023-0.063-0.058-0.063-0.033-0-0.091-0.034-0.129-0.074-0.058-0.063-0.062-0.086-0.025-0.156 0.032-0.059 0.052-0.070 0.071-0.038 0.016 0.025 0.007 0.057-0.022 0.075-0.041 0.025-0.039 0.041 0.011 0.090 0.055 0.055 0.064 0.056 0.118 0.001s0.053-0.066-0.019-0.167c-0.043-0.060-0.067-0.12-0.054-0.133s0.038-0 0.056 0.028c0.026 0.041 0.041 0.043 0.076 0.008 0.032-0.032 0.033-0.044 0.003-0.044-0.023 0-0.032-0.024-0.021-0.053 0.014-0.036-0.002-0.053-0.049-0.053-0.089 0-0.125-0.036-0.084-0.086 0.034-0.041 0.038-0.058 0.038-0.148 0-0.040 0.021-0.049 0.071-0.033 0.041 0.013 0.071 0.006 0.071-0.015s-0.018-0.038-0.040-0.038c-0.023 0-0.033-0.037-0.023-0.089 0.011-0.060 0.001-0.089-0.031-0.089-0.027 0-0.048 0.024-0.048 0.053 0 0.064-0.059 0.072-0.079 0.011-0.024-0.071 0.058-0.206 0.124-0.206 0.034-0 0.062-0.016 0.062-0.036s-0.020-0.036-0.045-0.036c-0.024 0-0.047-0.043-0.050-0.094-0.003-0.058 0.005-0.077 0.022-0.050 0.040 0.065 0.064 0.005 0.066-0.167 0.001-0.083 0.012-0.167 0.024-0.187 0.035-0.057-0.092-0.088-0.132-0.032-0.028 0.039-0.031 0.036-0.015-0.013 0.011-0.034 0.007-0.062-0.010-0.062s-0.024-0.053-0.017-0.118c0.011-0.103-0.002-0.126-0.103-0.178-0.064-0.033-0.084-0.053-0.045-0.043s0.4 0.050 0.801 0.091c0.877 0.089 0.962 0.106 0.445 0.088-0.249-0.009-0.353-0.003-0.285 0.016 0.059 0.016 0.081 0.032 0.049 0.034s-0.068 0.040-0.080 0.084c-0.029 0.11-0.028 0.141 0.007 0.12 0.016-0.010 0.021 0.033 0.011 0.096-0.011 0.068-0.024 0.089-0.032 0.052-0.007-0.034-0.028-0.062-0.047-0.062-0.052 0-0.038 0.094 0.021 0.143 0.049 0.040 0.048 0.052-0.003 0.109-0.036 0.040-0.049 0.091-0.034 0.137 0.018 0.056 0.008 0.074-0.041 0.075-0.055 0.001-0.051 0.012 0.024 0.071s0.081 0.076 0.036 0.105c-0.046 0.031-0.046 0.035 0.005 0.036 0.069 0.001 0.070 0.111 0.001 0.155-0.038 0.024-0.035 0.043 0.014 0.097 0.047 0.052 0.052 0.078 0.019 0.117s-0.029 0.055 0.013 0.071c0.030 0.011 0.054 0.038 0.054 0.060s-0.016 0.029-0.036 0.016c-0.023-0.014-0.034 0.042-0.030 0.157 0.003 0.099 0.020 0.171 0.036 0.161 0.051-0.031 0.034 0.006-0.042 0.094-0.042 0.049-0.063 0.107-0.049 0.139 0.013 0.030 0.035 0.106 0.050 0.167s0.038 0.129 0.051 0.151c0.014 0.022 0.009 0.040-0.010 0.040s-0.042-0.020-0.051-0.044c-0.009-0.024-0.017 0.103-0.018 0.284s-0.015 0.349-0.031 0.374c-0.041 0.065-0.037 0.241 0.005 0.243 0.020 0.001 0.005 0.025-0.034 0.053-0.068 0.051-0.068 0.052 0.004 0.052 0.055 0 0.074 0.023 0.074 0.089 0 0.049-0.014 0.089-0.031 0.089s-0.031-0.016-0.031-0.036c0-0.020-0.016-0.036-0.036-0.036-0.062 0-0.038 0.066 0.032 0.088s0.089 0.193 0.026 0.238c-0.017 0.012-0.006 0.075 0.026 0.139 0.071 0.143 0.073 0.129-0.017 0.152-0.049 0.013-0.065 0.035-0.047 0.065 0.021 0.034 0.031 0.035 0.042 0.002 0.022-0.067 0.080-0.050 0.080 0.024 0 0.038-0.032 0.076-0.075 0.087-0.041 0.011-0.066 0.035-0.054 0.053 0.029 0.047 0.202 0.008 0.225-0.051 0.010-0.027 0.041-0.049 0.068-0.049 0.085 0 0.054 0.061-0.053 0.105-0.077 0.032-0.098 0.060-0.084 0.113 0.010 0.039 0.004 0.065-0.013 0.060-0.065-0.022-0.054 0.081 0.024 0.229 0.018 0.034 0.023 0.086 0.011 0.116s-0.003 0.055 0.018 0.055c0.022 0 0.039-0.048 0.039-0.107s0.016-0.107 0.036-0.107c0.020 0 0.036-0.024 0.036-0.053s-0.016-0.053-0.036-0.053c-0.020 0-0.036 0.024-0.036 0.053s-0.016 0.053-0.036 0.053c-0.020 0-0.036-0.032-0.036-0.071s0.016-0.071 0.036-0.071c0.020 0 0.036-0.032 0.036-0.071s0.016-0.071 0.036-0.071c0.020 0 0.036 0.032 0.036 0.071s0.016 0.071 0.036 0.071c0.020 0 0.036 0.031 0.036 0.069 0 0.078 0.056 0.127 0.087 0.076 0.011-0.019 0.002-0.045-0.021-0.059-0.029-0.018-0.022-0.040 0.024-0.074 0.062-0.045 0.034-0.068-0.064-0.052-0.015 0.002-0.027-0.020-0.027-0.049s0.024-0.053 0.053-0.053c0.038 0 0.055-0.042 0.058-0.151 0.002-0.083 0.002-0.166-0.002-0.183s0.004-0.075 0.015-0.128c0.017-0.077 0.039-0.095 0.109-0.087 0.115 0.013 0.114-0.068-0.002-0.12-0.049-0.022-0.089-0.057-0.089-0.077s0.040-0.036 0.089-0.036c0.049 0 0.089-0.016 0.089-0.036s-0.022-0.036-0.049-0.036c-0.062 0-0.147-0.1-0.114-0.134 0.014-0.014 0.041 0.002 0.060 0.036s0.050 0.062 0.069 0.062c0.045 0 0.044-0.168-0.002-0.196-0.065-0.040-0.037-0.091 0.045-0.077 0.044 0.007 0.060 0.006 0.036-0.002-0.049-0.017-0.051-0.022-0.060-0.159-0.003-0.053 0.008-0.087 0.025-0.077s0.022 0.041 0.012 0.069c-0.011 0.028 0.002 0.050 0.029 0.050 0.059 0 0.055-0.107-0.006-0.172-0.069-0.073-0.054-0.102 0.062-0.126 0.104-0.021 0.106-0.025 0.088-0.202-0.010-0.1-0.020-0.192-0.023-0.206s0.007-0.052 0.022-0.086c0.017-0.039 0.006-0.082-0.030-0.118-0.077-0.077-0.072-0.097 0.019-0.068 0.058 0.018 0.069 0.013 0.045-0.024-0.042-0.065-0.049-0.359-0.011-0.407 0.018-0.022 0.017-0.087-0.001-0.151-0.030-0.104-0.023-0.126 0.039-0.118 0.013 0.002 0.030-0.035 0.039-0.082 0.011-0.059 0.002-0.079-0.030-0.067-0.037 0.014-0.039-0.007-0.011-0.101 0.051-0.171 0.076-0.502 0.037-0.477-0.018 0.011-0.025-0.010-0.015-0.048s0.048-0.076 0.086-0.086c0.076-0.020 0.093-0.151 0.023-0.179-0.027-0.011-0.013-0.028 0.036-0.043 0.047-0.014 0.080-0.053 0.080-0.093 0-0.038 0.016-0.059 0.036-0.047s0.036-0.002 0.036-0.031c0-0.029 0.036-0.060 0.080-0.068 0.070-0.014 0.068-0.016-0.016-0.020-0.053-0.003-0.105 0.010-0.116 0.027-0.024 0.039-0.162 0.008-0.162-0.036 0-0.017 0.052-0.034 0.116-0.037 0.102-0.005 0.096-0.009-0.045-0.033-0.171-0.029 0.063-0.022 0.762 0.025l0.353 0.024-0.024-0.919c-0.013-0.505-0.024-1.077-0.024-1.269v-0.35l-0.187-0c-0.103-0-0.271-0.010-0.373-0.023l-0.186-0.022-0.010-0.832c-0.006-0.531 0.003-0.837 0.025-0.847 0.020-0.008 0.012-0.032-0.018-0.053-0.047-0.034-0.047-0.042 0-0.074 0.046-0.030 0.046-0.040 0.003-0.068s-0.047-0.337-0.026-2.092c0.013-1.133 0.048-2.572 0.076-3.199s0.053-1.199 0.053-1.273l0.001-0.133-1.549 0.005-0.961 1.132-0.022 0.384c-0.012 0.211-0.024 0.596-0.027 0.856l-0.005 0.472h0.629l0.024 2.003c0.013 1.102 0.031 2.075 0.039 2.163s0.025 0.463 0.037 0.833l0.022 0.673-0.221-0.023c-0.122-0.013-0.258-0.023-0.304-0.023-0.079 0-0.082-0.010-0.066-0.196 0.011-0.126 0.004-0.196-0.021-0.196-0.021 0-0.028-0.017-0.015-0.037s0.004-0.060-0.019-0.087c-0.023-0.028-0.030-0.069-0.016-0.091s0.003-0.055-0.024-0.072c-0.036-0.023-0.028-0.031 0.031-0.032 0.085-0.001 0.11-0.056 0.036-0.081-0.055-0.018-0.075-1.232-0.022-1.297 0.021-0.025 0.021-0.049 0.001-0.062-0.018-0.011-0.026-0.111-0.017-0.222 0.014-0.176 0.009-0.198-0.042-0.179-0.047 0.018-0.054 0.007-0.034-0.054 0.020-0.064 0.013-0.072-0.042-0.053-0.046 0.016-0.039 0.002 0.023-0.046 0.077-0.061 0.083-0.080 0.045-0.142-0.058-0.094-0.056-0.111 0.009-0.086 0.034 0.013 0.053-0.001 0.053-0.037 0-0.031-0.023-0.057-0.051-0.057-0.084 0-0.107-0.141-0.032-0.197 0.062-0.047 0.061-0.050-0.018-0.051-0.075-0.001-0.082-0.015-0.069-0.126 0.012-0.102 0.003-0.125-0.050-0.125-0.035 0-0.064-0.016-0.064-0.036s0.024-0.036 0.053-0.036c0.083 0 0.063-0.065-0.024-0.078-0.043-0.006-0.085-0.034-0.094-0.061-0.012-0.036 0.005-0.044 0.059-0.030 0.042 0.011 0.085 0.005 0.096-0.012s-0.037-0.032-0.107-0.032c-0.070 0-0.127-0.016-0.127-0.036s-0.016-0.036-0.036-0.036c-0.046 0-0.045 0.438 0.002 0.961 0.021 0.225 0.051 0.61 0.068 0.855s0.039 0.549 0.049 0.677c0.010 0.127 0.028 0.44 0.041 0.694s0.029 0.511 0.036 0.57c0.067 0.544 0.14 1.415 0.141 1.679 0 0.179 0.013 0.318 0.028 0.309s0.022 0.095 0.016 0.232c-0.006 0.137 0.002 0.241 0.017 0.232s0.018 0.032 0.006 0.091c-0.013 0.065-0.004 0.13 0.022 0.162 0.036 0.043 0.033 0.057-0.013 0.075-0.068 0.026-0.076 0.108-0.013 0.132 0.035 0.013 0.035 0.026-0.002 0.065-0.039 0.041-0.051 0.041-0.078-0.002-0.025-0.041-0.049-0.043-0.122-0.010-0.057 0.026-0.098 0.029-0.112 0.006-0.012-0.019-0.060-0.247-0.106-0.506s-0.109-0.596-0.138-0.748c-0.029-0.152-0.063-0.409-0.075-0.57s-0.045-0.453-0.075-0.649c-0.032-0.214-0.060-0.719-0.070-1.263-0.009-0.499-0.039-1.068-0.067-1.264s-0.060-0.461-0.072-0.589c-0.012-0.127-0.038-0.373-0.059-0.546s-0.027-0.355-0.015-0.404c0.014-0.054 0.009-0.080-0.013-0.067-0.019 0.012-0.033-0.007-0.030-0.042s-0.007-0.107-0.021-0.161c-0.014-0.055-0.010-0.098 0.009-0.098s0.010-0.048-0.020-0.107-0.069-0.097-0.089-0.085c-0.023 0.014-0.027-0.037-0.010-0.146 0.019-0.125 0.013-0.176-0.023-0.198s-0.027-0.038 0.040-0.065c0.062-0.025 0.070-0.036 0.026-0.037-0.034-0.001-0.062-0.026-0.062-0.056s0.019-0.049 0.041-0.044c0.023 0.005 0.053-0.031 0.068-0.080 0.023-0.078 0.027-0.073 0.030 0.042 0.004 0.133 0.054 0.208 0.084 0.127 0.009-0.024 0.010-0.117 0.003-0.206-0.010-0.124 0.004-0.18 0.057-0.237 0.038-0.041 0.060-0.084 0.048-0.096s0.001-0.064 0.029-0.116c0.028-0.052 0.050-0.172 0.050-0.267 0-0.114 0.015-0.173 0.045-0.173 0.024-0 0.044 0.014 0.044 0.032s0.026 0.042 0.057 0.054c0.041 0.016 0.051 0.007 0.037-0.032-0.011-0.030-0.005-0.054 0.014-0.054 0.061 0 0.037-0.078-0.046-0.152-0.051-0.046-0.065-0.077-0.038-0.087 0.023-0.008 0.034-0.039 0.023-0.067-0.014-0.037-0.003-0.045 0.042-0.028 0.050 0.019 0.057 0.009 0.038-0.050-0.018-0.058-0.007-0.076 0.056-0.085 0.067-0.010 0.080-0.035 0.084-0.165 0.002-0.085 0.025-0.167 0.050-0.182 0.063-0.039-0.111-0.082-0.198-0.049-0.060 0.022-0.061 0.019-0.012-0.045 0.029-0.038 0.071-0.085 0.093-0.105 0.059-0.053 0.087-0.155 0.048-0.179-0.066-0.041-0.036-0.118 0.037-0.098 0.050 0.013 0.071 0.001 0.071-0.039 0-0.032-0.018-0.058-0.040-0.058-0.028 0-0.027-0.015 0.003-0.052 0.057-0.069 0.011-0.137-0.076-0.114-0.11 0.029-0.119-0.074-0.016-0.178 0.101-0.101 0.113-0.138 0.058-0.172-0.020-0.012-0.036 0.011-0.036 0.051 0 0.041-0.023 0.073-0.053 0.073s-0.053-0.032-0.053-0.072c0-0.040-0.024-0.081-0.053-0.092-0.046-0.018-0.046-0.027-0.001-0.071 0.040-0.040 0.043-0.070 0.011-0.139-0.045-0.098-0.127-0.116-0.158-0.034-0.011 0.029-0.036 0.053-0.054 0.053s-0.025-0.015-0.014-0.032c0.033-0.053-0.021-0.151-0.072-0.132-0.030 0.011-0.040-0.001-0.027-0.034 0.022-0.057 0.071-0.069 0.089-0.021 0.007 0.017 0.057 0.041 0.113 0.055 0.135 0.033 0.094-0.030-0.075-0.117l-0.13-0.066 0.15 0.004c0.124 0.003 0.15 0.016 0.15 0.074 0 0.050 0.011 0.059 0.039 0.032 0.058-0.058-0.036-0.19-0.126-0.175-0.040 0.006-0.054 0.005-0.031-0.003 0.065-0.023 0.090-0.126 0.040-0.162-0.036-0.026-0.036-0.036-0.001-0.050 0.024-0.010 0.046-0.069 0.048-0.131 0.003-0.106 0.005-0.108 0.029-0.024 0.025 0.086 0.026 0.085 0.044-0.027 0.010-0.064 0.009-0.125-0.001-0.135s-0.014-0.084-0.009-0.163c0.008-0.106-0.007-0.157-0.055-0.194-0.055-0.042-0.057-0.055-0.014-0.083 0.040-0.026 0.042-0.045 0.009-0.084-0.023-0.028-0.031-0.061-0.019-0.074s0.009-0.023-0.010-0.023c-0.018 0-0.033-0.044-0.033-0.098 0-0.141-0.069-0.156-0.082-0.018-0.015 0.159-0.077 0.146-0.083-0.018-0.003-0.083-0.011-0.103-0.020-0.053-0.020 0.104-0.060 0.101-0.149-0.012-0.092-0.117-0.197-0.090-0.25 0.063-0.063 0.182-0.217 0.255-0.217 0.103 0-0.036-0.024-0.085-0.053-0.109-0.046-0.038-0.053-0.028-0.053 0.065 0 0.060-0.015 0.118-0.033 0.13-0.063 0.039-0.075-0.048-0.026-0.19 0.042-0.123 0.042-0.146-0.002-0.163-0.079-0.030-0.123-0.024-0.099 0.015 0.012 0.019-0.042 0.045-0.123 0.058-0.129 0.021-0.144 0.034-0.144 0.123 0 0.065 0.022 0.105 0.062 0.116 0.056 0.015 0.056 0.017-0.004 0.020-0.051 0.003-0.063 0.025-0.050 0.091 0.015 0.079 0.007 0.085-0.085 0.067-0.073-0.015-0.102-0.006-0.102 0.030 0 0.028-0.048 0.068-0.108 0.091s-0.105 0.054-0.101 0.070c0.012 0.053-0.052 0.171-0.118 0.218-0.036 0.026-0.065 0.086-0.065 0.134 0 0.054-0.020 0.087-0.055 0.087-0.044 0-0.047 0.014-0.017 0.071 0.038 0.072 0.036 0.077-0.044 0.085-0.024 0.002-0.050 0.040-0.056 0.085-0.007 0.052-0.036 0.080-0.082 0.080-0.047 0-0.067 0.020-0.060 0.062 0.006 0.036-0.012 0.062-0.043 0.062-0.029 0-0.064 0.032-0.077 0.071-0.021 0.065-0.023 0.064-0.027-0.011-0.002-0.045 0.020-0.107 0.050-0.136 0.061-0.061 0.070-0.12 0.018-0.12-0.020 0-0.036 0.019-0.036 0.042s-0.008 0.034-0.017 0.024c-0.046-0.046 0.15-0.962 0.313-1.465 0.194-0.599 0.418-0.876 1.112-1.375 0.368-0.265 0.39-0.276 0.401-0.195 0.006 0.047 0.017 0.085 0.024 0.085 0.071 0 0.416-0.191 0.71-0.393 0.415-0.285 0.641-0.499 0.642-0.609 0.001-0.048 0.050-0.107 0.135-0.16l0.133-0.085v0.107c0 0.059 0.008 0.107 0.018 0.107s0.117-0.072 0.239-0.16c0.121-0.088 0.232-0.16 0.247-0.16s0.031-0.059 0.037-0.131c0.011-0.127 0.027-0.141 0.427-0.383 0.229-0.138 0.456-0.289 0.505-0.335s0.107-0.072 0.13-0.058c0.023 0.014 0.172 0.031 0.332 0.038s0.363 0.024 0.451 0.037c0.247 0.038 0.29 0.040 0.259 0.011-0.024-0.023-0.673-0.126-0.942-0.149-0.137-0.012-0.093-0.049 0.138-0.116 0.143-0.041 0.285-0.125 0.485-0.285 0.374-0.299 0.459-0.317 1.151-0.243 0.532 0.057 1.382 0.054 3.501-0.009 0.804-0.024 1.041 0.008 1.311 0.179 0.133 0.084 0.398 0.362 0.398 0.417 0 0.035 1.086 0.851 1.298 0.976 0.156 0.091 0.162 0.1 0.105 0.162s-0.040 0.078 0.347 0.33c0.223 0.146 0.557 0.356 0.742 0.469l0.336 0.204 0.167-0.216 0.176 0.073c0.097 0.040 0.176 0.095 0.176 0.122 0 0.062-0.040 0.062-0.127-0.002-0.060-0.044-0.077-0.043-0.131 0.006-0.034 0.031-0.062 0.075-0.062 0.098 0 0.061 0.488 0.324 0.691 0.372 0.166 0.040 0.179 0.037 0.272-0.052l0.097-0.093 0.949 0.464c0.562 0.275 0.959 0.49 0.975 0.528 0.014 0.035 0.159 0.26 0.321 0.501s0.284 0.455 0.27 0.477c-0.014 0.022-0.009 0.030 0.011 0.018 0.045-0.028 0.127 0.145 0.095 0.197-0.014 0.022-0.007 0.028 0.016 0.014s0.070 0.034 0.115 0.123c0.041 0.081 0.056 0.136 0.033 0.122-0.032-0.020-0.032-0.008-0.001 0.050 0.022 0.042 0.053 0.075 0.068 0.075s0.056 0.060 0.091 0.133l0.064 0.133-0.083-0.071c-0.069-0.059-0.074-0.060-0.033-0.006 0.040 0.052 0.041 0.071 0.005 0.093-0.035 0.021-0.032 0.033 0.013 0.050 0.072 0.028 0.173 0.26 0.138 0.319-0.015 0.025-0.001 0.023 0.035-0.007 0.034-0.027 0.071-0.039 0.084-0.027s0.007 0.023-0.013 0.023c-0.061 0-0.128 0.183-0.082 0.228 0.029 0.029 0.033 0.022 0.016-0.023-0.014-0.037-0.007-0.062 0.017-0.062 0.022 0 0.050 0.048 0.062 0.108s0.036 0.117 0.054 0.128c0.019 0.012 0.016 0.041-0.008 0.069-0.047 0.057-0.017 0.123 0.057 0.123 0.031 0 0.051 0.036 0.051 0.091 0 0.050 0.019 0.126 0.041 0.169 0.037 0.070 0.036 0.073-0.018 0.029-0.043-0.036-0.059-0.037-0.059-0.006 0 0.024 0.032 0.052 0.071 0.062 0.074 0.019 0.084 0.044 0.072 0.181-0.004 0.045 0.015 0.108 0.041 0.139 0.037 0.045 0.038 0.061 0.003 0.072-0.024 0.008-0.044 0.031-0.044 0.050s0.016 0.025 0.036 0.013c0.020-0.012 0.038 0.007 0.040 0.042s0.016 0.016 0.031-0.042l0.027-0.107 0.004 0.113c0.005 0.138-0.071 0.172-0.311 0.136-0.295-0.043-0.767-0.16-0.938-0.233-0.187-0.079-0.243-0.087-0.243-0.035 0 0.020 0.017 0.036 0.039 0.036s0.336 0.144 0.7 0.321c0.364 0.177 0.723 0.331 0.798 0.343 0.11 0.018 0.136 0.037 0.134 0.097-0.002 0.074-0.003 0.074-0.034 0.004-0.024-0.055-0.030-0.038-0.026 0.071 0.003 0.078-0.007 0.182-0.022 0.231-0.021 0.067-0.018 0.076 0.010 0.036 0.033-0.047 0.038-0.047 0.043 0 0.003 0.029 0.016-0.011 0.028-0.089 0.018-0.117 0.030-0.068 0.066 0.269 0.024 0.226 0.044 0.492 0.044 0.591s0.041 0.418 0.091 0.71c0.050 0.292 0.083 0.587 0.072 0.655-0.012 0.079-0.009 0.1 0.009 0.057 0.019-0.045 0.043 0.067 0.072 0.333 0.034 0.318 0.034 0.412-0 0.454-0.024 0.029-0.165 0.114-0.313 0.188-0.715 0.358-1.811 0.664-2.872 0.8-0.373 0.048-1.317 0.126-1.535 0.127-0.072 0-0.076 0.009-0.041 0.098 0.021 0.054 0.044 0.154 0.052 0.223 0.055 0.474 0.074 0.605 0.090 0.621 0.010 0.010 0.134 0.029 0.275 0.042 0.239 0.022 0.258 0.030 0.279 0.117 0.012 0.051 0.037 0.112 0.056 0.136s0.024 0.059 0.011 0.079c-0.012 0.020 0.003 0.075 0.034 0.122 0.052 0.079 0.051 0.091-0.001 0.143-0.040 0.040-0.044 0.057-0.012 0.057 0.030 0 0.033 0.012 0.010 0.035-0.028 0.028-0.276 0.081-0.537 0.114-0.050 0.006-0.024 0.574 0.027 0.593 0.018 0.007 0.023 0.027 0.012 0.044s-0.002 0.033 0.020 0.033c0.022 0 0.031 0.014 0.020 0.032-0.033 0.053 0.121 0.074 0.537 0.075 1.43 0.002 3.205-0.425 3.938-0.947 0.093-0.066 0.177-0.12 0.187-0.12s0.018 0.050 0.018 0.111c0 0.061 0.025 0.271 0.056 0.467l0.056 0.355-0.101 0.107c-0.129 0.136-0.714 0.431-1.115 0.562-0.429 0.14-1.094 0.271-1.72 0.339-0.576 0.062-1.483 0.087-1.637 0.044-0.118-0.033-0.176-0.141-0.258-0.48-0.034-0.142-0.075-0.25-0.090-0.241-0.091 0.057 0.031 7.767 0.146 9.203 0.020 0.244 0.083 1.085 0.14 1.869 0.119 1.62 0.195 2.565 0.263 3.257 0.051 0.518 0.039 0.61-0.103 0.826-0.199 0.301-0.912 0.686-1.603 0.866-1.62 0.422-2.334 0.496-4.255 0.443zM3.406 27.743c-0.010-0.024-0.018-0.004-0.018 0.044s0.008 0.069 0.018 0.044c0.010-0.024 0.010-0.065 0-0.089zM4.024 27.431c0-0.020-0.016-0.036-0.036-0.036s-0.036 0.016-0.036 0.036c0 0.020 0.016 0.036 0.036 0.036s0.036-0.016 0.036-0.036zM4.362 27.004c-0.012-0.020-0.037-0.036-0.056-0.036s-0.034 0.016-0.034 0.036c0 0.020 0.025 0.036 0.056 0.036s0.046-0.016 0.034-0.036zM4.166 26.811c0-0.028 0.020-0.059 0.045-0.071s0.013-0.016-0.026-0.011c-0.073 0.009-0.125 0.133-0.056 0.133 0.021 0 0.038-0.023 0.038-0.050zM4.237 26.525c0-0.038-0.068-0.053-0.089-0.020-0.012 0.020 0.003 0.036 0.033 0.036s0.056-0.007 0.056-0.016zM4.227 26.234c-0.012-0.012-0.006-0.052 0.013-0.089 0.024-0.045 0.024-0.067-0.001-0.067-0.020 0-0.037 0.015-0.037 0.033s-0.010 0.058-0.022 0.089c-0.013 0.033-0.003 0.056 0.024 0.056 0.025 0 0.035-0.010 0.023-0.023zM4.458 25.762c-0.019-0.012-0.041-0.054-0.049-0.093-0.012-0.059-0.018-0.055-0.035 0.026-0.011 0.053-0.006 0.088 0.011 0.078s0.030 0.012 0.030 0.049c0 0.101 0.052 0.134 0.065 0.042 0.007-0.044-0.004-0.089-0.023-0.101zM4.575 25.651c0.012-0.020-0.004-0.036-0.036-0.036s-0.048 0.016-0.036 0.036c0.012 0.020 0.028 0.036 0.036 0.036s0.024-0.016 0.036-0.036zM4.415 25.547c0-0.018-0.032-0.024-0.071-0.014s-0.071 0.025-0.071 0.032c0 0.008 0.032 0.014 0.071 0.014s0.071-0.015 0.071-0.032zM4.308 25.315c0-0.038-0.068-0.053-0.089-0.020-0.012 0.020 0.003 0.036 0.033 0.036s0.056-0.007 0.056-0.016zM4.842 25.081c0-0.020-0.017-0.036-0.038-0.036s-0.028 0.016-0.016 0.036c0.012 0.020 0.029 0.036 0.038 0.036s0.016-0.016 0.016-0.036zM4.825 24.654c0.012-0.020-0.003-0.036-0.034-0.036s-0.056 0.016-0.056 0.036c0 0.020 0.015 0.036 0.034 0.036s0.043-0.016 0.056-0.036zM4.842 24.511c0-0.020-0.017-0.036-0.038-0.036s-0.028 0.016-0.016 0.036c0.012 0.020 0.029 0.036 0.038 0.036s0.016-0.016 0.016-0.036zM4.575 23.764c0.012-0.020 0.005-0.036-0.016-0.036s-0.038 0.016-0.038 0.036c0 0.020 0.007 0.036 0.016 0.036s0.026-0.016 0.038-0.036zM5.021 23.604c0-0.036-0.147-0.038-0.176-0.003-0.027 0.033-0.011 0.040 0.070 0.028 0.058-0.009 0.106-0.020 0.106-0.025zM4.664 23.55c0-0.020-0.007-0.036-0.016-0.036s-0.026 0.016-0.038 0.036c-0.012 0.020-0.005 0.036 0.016 0.036s0.038-0.016 0.038-0.036zM4.757 23.453c-0.036-0.036-0.066 0.018-0.036 0.066 0.022 0.036 0.031 0.036 0.043 0 0.008-0.025 0.005-0.055-0.007-0.067zM5.11 23.514c0.012-0.020-0.004-0.036-0.036-0.036s-0.048 0.016-0.036 0.036c0.012 0.020 0.028 0.036 0.036 0.036s0.024-0.016 0.036-0.036zM4.655 23.457c-0.012-0.012-0.043-0.013-0.068-0.003-0.028 0.011-0.020 0.020 0.021 0.021 0.038 0.002 0.059-0.007 0.047-0.019zM5.003 23.408c0.012-0.020 0.005-0.036-0.016-0.036s-0.038 0.016-0.038 0.036c0 0.020 0.007 0.036 0.016 0.036s0.026-0.016 0.038-0.036zM4.575 23.336c-0.012-0.020-0.037-0.036-0.056-0.036s-0.034 0.016-0.034 0.036c0 0.020 0.025 0.036 0.056 0.036s0.046-0.016 0.034-0.036zM4.654 23.213c-0.046-0.034-0.058-0.077-0.044-0.158 0.022-0.124-0.047-0.158-0.078-0.040-0.010 0.039-0.049 0.071-0.086 0.071s-0.067 0.018-0.067 0.039c0 0.025 0.035 0.031 0.095 0.016 0.083-0.021 0.090-0.017 0.049 0.032s-0.033 0.056 0.051 0.056c0.078 0 0.092 0.012 0.073 0.062-0.020 0.051-0.016 0.054 0.023 0.015s0.035-0.055-0.017-0.094zM4.46 22.729c-0.014-0.054-0.030-0.063-0.059-0.034s-0.025 0.048 0.014 0.073c0.029 0.018 0.056 0.034 0.059 0.034s-0.003-0.033-0.014-0.073zM6.018 22.070c0-0.031-0.016-0.045-0.036-0.033s-0.027 0.037-0.016 0.055c0.031 0.049 0.052 0.040 0.052-0.022zM5.706 22.031c-0.024-0.010-0.065-0.010-0.089 0s-0.004 0.018 0.045 0.018c0.049 0 0.069-0.008 0.045-0.018zM5.857 21.948c0.012-0.020 0.005-0.036-0.016-0.036s-0.038 0.016-0.038 0.036c0 0.020 0.007 0.036 0.016 0.036s0.026-0.016 0.038-0.036zM5.697 21.823c0-0.049-0.006-0.089-0.014-0.089s-0.021 0.040-0.031 0.089c-0.009 0.049-0.003 0.089 0.014 0.089s0.031-0.040 0.031-0.089zM4.736 21.841c0-0.020-0.016-0.036-0.036-0.036s-0.036 0.016-0.036 0.036c0 0.020 0.016 0.036 0.036 0.036s0.036-0.016 0.036-0.036zM5.759 21.606c-0.012-0.012-0.043-0.013-0.068-0.003-0.028 0.011-0.020 0.020 0.021 0.021 0.038 0.002 0.059-0.007 0.047-0.019zM6.302 20.915c0-0.020-0.016-0.036-0.036-0.036s-0.036 0.016-0.036 0.036c0 0.020 0.016 0.036 0.036 0.036s0.036-0.016 0.036-0.036zM5.032 19.974c0.011-0.028-0.002-0.059-0.028-0.069-0.032-0.012-0.041 0.004-0.029 0.050 0.021 0.082 0.031 0.085 0.057 0.018zM6.658 19.861c0-0.008-0.041-0.014-0.091-0.014s-0.082 0.015-0.071 0.032c0.018 0.029 0.162 0.013 0.162-0.019zM5.056 19.758c0-0.029-0.016-0.053-0.036-0.053s-0.036 0.024-0.036 0.053c0 0.029 0.016 0.053 0.036 0.053s0.036-0.024 0.036-0.053zM7.744 18.529c0.012-0.020-0.004-0.036-0.036-0.036s-0.048 0.016-0.036 0.036c0.012 0.020 0.028 0.036 0.036 0.036s0.024-0.016 0.036-0.036zM5.189 18.259c-0.012-0.012-0.043-0.013-0.068-0.003-0.028 0.011-0.020 0.020 0.021 0.021 0.038 0.002 0.059-0.007 0.047-0.019zM5.234 17.817c0-0.020-0.016-0.036-0.036-0.036s-0.036 0.016-0.036 0.036c0 0.020 0.016 0.036 0.036 0.036s0.036-0.016 0.036-0.036zM5.341 17.39c0-0.020-0.017-0.036-0.038-0.036s-0.028 0.016-0.016 0.036c0.012 0.020 0.029 0.036 0.038 0.036s0.016-0.016 0.016-0.036zM12.567 16.989c0.067-0.103 0.309-0.453 0.538-0.778l0.417-0.591 0.027-4.036-0.997-1.307-0.427-0.022c-0.235-0.012-0.714-0.033-1.064-0.045l-0.637-0.023 0.022-0.502c0.012-0.276 0.033-0.747 0.046-1.047l0.023-0.545 3.229 0.050v-0.195c0-0.209 0.096-1.72 0.121-1.904l0.015-0.111-2.409-0.024c-1.325-0.013-2.522-0.027-2.659-0.031l-0.249-0.007-0.025 0.445c-0.063 1.122-0.136 3.209-0.158 4.543l-0.024 1.463 0.584 0.023c0.321 0.013 1.037 0.034 1.59 0.047l1.006 0.024v0.487c0 0.268-0.011 0.778-0.023 1.134l-0.023 0.647-0.395-0c-0.217-0-0.479-0.010-0.582-0.023l-0.187-0.022v-0.877l-0.116-0.020c-0.064-0.011-0.508-0.024-0.987-0.028l-0.871-0.009 0.020 1.795 0.408 0.608c0.225 0.335 0.397 0.626 0.384 0.648s-0.009 0.030 0.012 0.017c0.020-0.013 0.091 0.057 0.157 0.154l0.12 0.177 0.392 0.005c0.215 0.003 0.744 0.017 1.175 0.030s0.928 0.028 1.104 0.031l0.321 0.006zM5.243 16.957c-0.011-0.041 0.002-0.086 0.031-0.104 0.027-0.017 0.034-0.031 0.014-0.031-0.059 0-0.117 0.049-0.125 0.106-0.015 0.102 0.001 0.14 0.050 0.121 0.030-0.011 0.042-0.048 0.030-0.092zM5.768 17.034c0-0.020-0.017-0.036-0.038-0.036s-0.028 0.016-0.016 0.036c0.012 0.020 0.029 0.036 0.038 0.036s0.016-0.016 0.016-0.036zM8.799 16.348c-0.035-0.035-0.039-0.031-0.020 0.020 0.013 0.035 0.033 0.055 0.044 0.044s0-0.040-0.024-0.064zM8.832 16.276l-0.083-0.079 0.067 0.094c0.037 0.052 0.075 0.088 0.083 0.079s-0.022-0.051-0.067-0.094zM7.244 14.325c-0.011-0.018-0.040-0.032-0.063-0.030-0.030 0.002-0.030 0.008 0.002 0.021 0.025 0.010 0.034 0.035 0.021 0.056-0.014 0.023-0.007 0.028 0.018 0.012 0.023-0.014 0.032-0.041 0.021-0.059zM7.2 14.148c0.009-0.060 0.003-0.117-0.014-0.127s-0.030 0.039-0.030 0.108c0 0.155 0.022 0.165 0.043 0.018zM7.181 12.861c-0.011-0.028-0.020-0.020-0.021 0.021-0.002 0.038 0.007 0.059 0.019 0.047s0.013-0.043 0.003-0.068zM7.181 12.399c-0.011-0.028-0.020-0.020-0.021 0.021-0.002 0.038 0.007 0.059 0.019 0.047s0.013-0.043 0.003-0.068zM21.613 11.835c0.029-0.019 0.037-0.035 0.018-0.035s-0.060 0.016-0.089 0.035c-0.029 0.019-0.037 0.035-0.018 0.035s0.060-0.016 0.089-0.035zM7.171 11.613c-0.032-0.253-0.050-0.258-0.050-0.015 0 0.115 0.016 0.202 0.037 0.202 0.024 0 0.028-0.067 0.013-0.187zM21.893 11.697c0.027-0.017 0.043-0.045 0.036-0.063s-0.041-0.004-0.076 0.031c-0.065 0.067-0.043 0.085 0.040 0.032zM7.165 11.188c0.007-0.072 0-0.123-0.015-0.114s-0.027 0.085-0.025 0.167c0.003 0.168 0.021 0.144 0.041-0.053zM4.502 10.415c0.029-0.048-0.078-0.122-0.141-0.097-0.046 0.018-0.048 0.030-0.009 0.074 0.053 0.060 0.122 0.070 0.151 0.024zM4.433 10.198c-0.012-0.020-0.045-0.036-0.073-0.036s-0.051 0.016-0.051 0.036c0 0.020 0.033 0.036 0.073 0.036s0.063-0.016 0.051-0.036zM21.744 9.761c-0.010-0.024-0.018-0.004-0.018 0.044s0.008 0.069 0.018 0.044c0.010-0.024 0.010-0.065 0-0.089zM21.72 9.574c0-0.049-0.006-0.089-0.014-0.089s-0.021 0.040-0.031 0.089c-0.009 0.049-0.003 0.089 0.014 0.089s0.031-0.040 0.031-0.089zM3.881 9.232c0-0.020-0.016-0.026-0.036-0.014s-0.036 0.038-0.036 0.058c0 0.020 0.016 0.026 0.036 0.014s0.036-0.038 0.036-0.058zM21.693 9.040c-0.009-0.049-0.023-0.089-0.031-0.089s-0.014 0.040-0.014 0.089c0 0.049 0.014 0.089 0.031 0.089s0.023-0.040 0.014-0.089zM4.083 8.838c-0.011-0.028-0.020-0.020-0.021 0.021-0.002 0.038 0.007 0.059 0.019 0.047s0.013-0.043 0.003-0.068zM4.308 8.253c0-0.008-0.041-0.014-0.091-0.014s-0.082 0.015-0.071 0.032c0.018 0.030 0.162 0.013 0.162-0.019zM17.162 7.975c0.001-0.091-0.020-0.063-0.049 0.068-0.017 0.078-0.014 0.092 0.012 0.053 0.020-0.029 0.036-0.084 0.037-0.122zM17.293 7.485c-0.011-0.028-0.020-0.020-0.021 0.021-0.002 0.038 0.007 0.059 0.019 0.047s0.013-0.043 0.003-0.068zM21.291 7.284c-0.028-0.009-0.074-0.034-0.102-0.056-0.043-0.034-0.043-0.029-0.003 0.037 0.029 0.046 0.069 0.068 0.102 0.056 0.046-0.018 0.047-0.023 0.003-0.037zM17.4 7.129c-0.011-0.028-0.020-0.020-0.021 0.021-0.002 0.038 0.007 0.059 0.019 0.047s0.013-0.043 0.003-0.068zM4.575 7.135c0.012-0.020-0.003-0.036-0.034-0.036s-0.056 0.016-0.056 0.036c0 0.020 0.015 0.036 0.034 0.036s0.043-0.016 0.056-0.036zM21.172 6.967c-0.036-0.036-0.066 0.018-0.036 0.066 0.022 0.036 0.031 0.036 0.043 0 0.008-0.025 0.005-0.055-0.007-0.066zM17.515 6.868c0.001-0.020-0.014-0.012-0.033 0.018s-0.034 0.077-0.033 0.107c0.002 0.056 0.061-0.057 0.065-0.125zM4.593 6.637c0-0.020-0.016-0.036-0.036-0.036s-0.036 0.016-0.036 0.036c0 0.020 0.016 0.036 0.036 0.036s0.036-0.016 0.036-0.036zM4.404 6.523c-0.011-0.028-0.020-0.020-0.021 0.021-0.002 0.038 0.007 0.059 0.019 0.047s0.013-0.043 0.003-0.068zM4.268 6.534c0.034-0.021 0.036-0.038 0.009-0.055-0.045-0.028-0.111 0.004-0.111 0.053 0 0.041 0.038 0.042 0.102 0.002zM17.731 6.336c0.001-0.018-0.022-0.002-0.051 0.036s-0.052 0.093-0.052 0.123c0 0.056 0.101-0.098 0.103-0.158zM17.839 6.134c0-0.020-0.016-0.026-0.036-0.014s-0.036 0.038-0.036 0.058c0 0.020 0.016 0.026 0.036 0.014s0.036-0.038 0.036-0.058zM5.412 6.054c0-0.007-0.028-0.035-0.062-0.062-0.056-0.044-0.058-0.043-0.013 0.013 0.046 0.059 0.076 0.078 0.076 0.049zM17.962 5.88c0.054-0.093 0.089-0.169 0.078-0.169-0.024 0-0.201 0.298-0.201 0.338s0.010 0.026 0.123-0.169zM4.237 5.854c0-0.020-0.036-0.035-0.080-0.035-0.065 0-0.070 0.007-0.027 0.035 0.069 0.045 0.107 0.045 0.107 0zM1.733 5.667c-0.010-0.024-0.018-0.004-0.018 0.045s0.008 0.069 0.018 0.045c0.010-0.024 0.010-0.065 0-0.089zM4.318 5.688c-0.024-0.010-0.072-0.010-0.107-0.001s-0.015 0.017 0.044 0.018c0.059 0.001 0.087-0.007 0.063-0.016zM18.23 5.413c0-0.020-0.024-0.005-0.052 0.034s-0.052 0.085-0.052 0.105c0 0.020 0.024 0.005 0.052-0.034s0.052-0.085 0.052-0.105zM4.308 5.462c0-0.020-0.016-0.036-0.036-0.036s-0.036 0.016-0.036 0.036c0 0.020 0.016 0.036 0.036 0.036s0.036-0.016 0.036-0.036zM4.308 5.175c0-0.059 0.016-0.070 0.080-0.054 0.044 0.011 0.060 0.011 0.036-0.001s-0.045-0.036-0.045-0.055c0-0.039-0.185-0.28-0.215-0.28-0.027 0 0.016 0.364 0.050 0.418 0.043 0.069 0.095 0.053 0.095-0.029zM18.947 4.483l0.216-0.249-0.218 0.229c-0.212 0.223-0.536 0.646-0.536 0.701 0 0.015 0.073-0.076 0.161-0.202s0.258-0.342 0.377-0.479zM2.626 4.694c-0.035-0.035-0.098 0.019-0.098 0.084 0 0.054 0.005 0.054 0.060-0.001 0.033-0.033 0.050-0.070 0.038-0.082zM3.311 4.732c0-0.029-0.016-0.053-0.036-0.053s-0.036 0.024-0.036 0.053c0 0.029 0.016 0.053 0.036 0.053s0.036-0.024 0.036-0.053zM4.189 4.668c0.014-0.014-0.001-0.025-0.032-0.025s-0.064-0.028-0.073-0.062c-0.010-0.040-0.018-0.028-0.020 0.032-0.004 0.091 0.061 0.119 0.125 0.055zM10.583 4.375c0.056-0.621 0.135-1.605 0.135-1.681 0-0.072-0.018-0.080-0.17-0.080h-0.169l-0.086 0.24c-0.047 0.132-0.090 0.224-0.095 0.205s-0.028-0.127-0.050-0.24l-0.040-0.205h-0.157c-0.134 0-0.16 0.012-0.175 0.080-0.016 0.071-0.074 0.717-0.145 1.638l-0.024 0.312h0.355l0.022-0.187c0.012-0.103 0.024-0.251 0.026-0.329l0.004-0.142 0.035 0.134c0.044 0.164 0.077 0.169 0.129 0.018 0.033-0.097 0.037-0.068 0.021 0.178-0.011 0.161-0.011 0.307-0.001 0.323s0.095 0.028 0.189 0.026l0.171-0.004 0.026-0.283zM11.627 4.485c0.013-0.106 0.013-0.21 0.001-0.231s-0.111-0.038-0.217-0.038h-0.194v-0.178c0-0.172 0.003-0.178 0.102-0.178 0.086 0 0.106-0.018 0.125-0.111 0.012-0.061 0.022-0.157 0.022-0.214 0-0.091-0.012-0.102-0.111-0.102s-0.108-0.010-0.089-0.080c0.012-0.044 0.022-0.124 0.022-0.178 0.001-0.096 0.004-0.098 0.227-0.098h0.227l0.023-0.198c0.013-0.109 0.015-0.211 0.005-0.227-0.026-0.041-0.838-0.048-0.838-0.007 0 0.018-0.017 0.199-0.039 0.402-0.056 0.536-0.13 1.575-0.113 1.606 0.008 0.015 0.196 0.027 0.419 0.027h0.405zM12.662 4.58c0.107-0.094 0.112-0.111 0.151-0.523l0.039-0.426-0.095-0.099c-0.078-0.082-0.125-0.099-0.266-0.099h-0.171v-0.178c0-0.135 0.013-0.178 0.054-0.178 0.043 0 0.049 0.029 0.031 0.142l-0.023 0.142h0.218c0.12 0 0.23 0 0.245 0.001s0.039-0.115 0.053-0.256c0.025-0.248 0.023-0.261-0.069-0.357-0.090-0.094-0.112-0.1-0.4-0.099-0.28 0.001-0.314 0.009-0.418 0.098-0.108 0.093-0.114 0.112-0.149 0.489l-0.037 0.392 0.112 0.116c0.093 0.096 0.138 0.116 0.27 0.116h0.158l-0.022 0.134c-0.012 0.073-0.022 0.162-0.022 0.196s-0.016 0.062-0.036 0.062c-0.020 0-0.036-0.065-0.036-0.144v-0.144l-0.445 0.021-0.019 0.231c-0.018 0.21-0.011 0.242 0.071 0.347 0.090 0.115 0.094 0.116 0.393 0.115 0.278-0.001 0.312-0.009 0.414-0.098zM6.231 4.287c0.016-0.291 0.022-0.319 0.048-0.205 0.036 0.158 0.074 0.169 0.124 0.036 0.027-0.073 0.031-0.019 0.016 0.214l-0.021 0.312h0.183c0.151 0 0.183-0.011 0.184-0.062 0.001-0.107 0.104-1.372 0.125-1.54 0.011-0.088 0.028-0.213 0.038-0.278l0.018-0.118-0.17 0.011c-0.169 0.011-0.17 0.012-0.242 0.198-0.082 0.214-0.126 0.238-0.126 0.071-0.001-0.237-0.029-0.276-0.197-0.276-0.139 0-0.155 0.009-0.173 0.098-0.066 0.324-0.203 1.815-0.173 1.871 0.009 0.016 0.090 0.024 0.181 0.018l0.166-0.011zM7.241 4.536c0.028-0.139 0.094-0.138 0.094 0.002 0 0.107 0.002 0.109 0.167 0.098l0.167-0.011-0.011-0.249c-0.006-0.137-0.021-0.584-0.033-0.993l-0.022-0.743-0.336-0.009-0.088 0.374c-0.081 0.344-0.233 1.125-0.288 1.487l-0.023 0.151h0.177c0.168 0 0.178-0.005 0.198-0.107zM8.136 4.251c0.014-0.215 0.038-0.392 0.054-0.392s0.023 0.028 0.016 0.062c-0.007 0.034-0.021 0.211-0.032 0.392l-0.020 0.329h0.349l0.021-0.312c0.012-0.171 0.045-0.6 0.075-0.952 0.071-0.845 0.081-0.766-0.103-0.766-0.181 0-0.184 0.007-0.224 0.522-0.013 0.163-0.039 0.297-0.058 0.297s-0.026-0.044-0.015-0.099c0.011-0.054 0.031-0.239 0.045-0.409l0.025-0.311h-0.165c-0.091 0-0.165 0.012-0.165 0.027s-0.016 0.163-0.034 0.329-0.051 0.519-0.071 0.783c-0.020 0.264-0.046 0.573-0.058 0.685l-0.022 0.205h0.355zM9.378 4.521c0.079-0.104 0.093-0.159 0.095-0.365 0.001-0.133 0.023-0.483 0.050-0.777 0.045-0.492 0.044-0.543-0.012-0.641s-0.077-0.108-0.289-0.118c-0.202-0.010-0.235-0.002-0.294 0.071-0.112 0.14-0.124 0.205-0.187 0.979l-0.061 0.752 0.082 0.11c0.076 0.103 0.097 0.11 0.302 0.11 0.209 0 0.225-0.006 0.314-0.122zM9.056 3.993c0.012-0.103 0.033-0.351 0.046-0.552 0.013-0.202 0.040-0.365 0.059-0.365 0.022 0 0.027 0.089 0.012 0.24-0.013 0.132-0.034 0.381-0.046 0.552s-0.039 0.312-0.058 0.312c-0.021 0-0.027-0.073-0.013-0.187zM17.464 3.607c0.072-0.1 0.125-0.186 0.119-0.191-0.036-0.029-0.556-0.326-0.607-0.347-0.034-0.014-0.070-0.010-0.081 0.007s-0.179-0.067-0.373-0.188c-0.194-0.122-0.601-0.377-0.904-0.568s-0.565-0.347-0.581-0.347c-0.017 0-0.050 0.032-0.075 0.071-0.038 0.061-0.029 0.092 0.065 0.223 0.127 0.175 0.504 0.432 0.556 0.38 0.050-0.050 1.153 0.645 1.133 0.715-0.010 0.036 0.083 0.115 0.277 0.238 0.161 0.102 0.302 0.186 0.315 0.187s0.082-0.079 0.154-0.179zM3.388 27.467c0-0.049 0.008-0.069 0.018-0.044s0.010 0.065 0 0.089c-0.010 0.024-0.018 0.004-0.018-0.044zM3.91 26.766c0.026-0.010 0.056-0.009 0.068 0.003s-0.009 0.020-0.047 0.019c-0.041-0.002-0.050-0.010-0.022-0.021zM3.902 25.834c-0.015-0.025-0.018-0.055-0.007-0.067 0.032-0.032 0.067 0.015 0.049 0.067-0.012 0.036-0.020 0.036-0.043-0zM4.069 25.653c0.003-0.038 0.017-0.061 0.032-0.052s0.018 0.040 0.007 0.069c-0.028 0.073-0.045 0.065-0.038-0.016zM3.981 25.484c0.026-0.010 0.056-0.009 0.068 0.003s-0.009 0.020-0.047 0.019c-0.041-0.002-0.050-0.010-0.022-0.021zM3.988 25.188c0-0.020 0.024-0.036 0.053-0.036s0.053 0.016 0.053 0.036c0 0.020-0.024 0.036-0.053 0.036s-0.053-0.016-0.053-0.036zM3.988 25.067c0-0.008 0.024-0.023 0.053-0.035s0.053-0.005 0.053 0.014c0 0.019-0.024 0.034-0.053 0.034s-0.053-0.006-0.053-0.014zM4.345 21.928c0.001-0.049 0.064-0.141 0.084-0.121 0.009 0.009-0.006 0.048-0.034 0.086s-0.050 0.054-0.050 0.036zM4.433 21.627c-0.012-0.020 0.004-0.036 0.036-0.036s0.048 0.016 0.036 0.036c-0.012 0.020-0.028 0.036-0.036 0.036s-0.024-0.016-0.036-0.036zM6.091 21.25c0.002-0.041 0.010-0.050 0.021-0.021 0.010 0.026 0.009 0.056-0.003 0.068s-0.020-0.009-0.019-0.047zM5.999 21.057c-0.038-0.061 0.017-0.093 0.059-0.034 0.027 0.039 0.032 0.025 0.018-0.056-0.010-0.060-0.003-0.132 0.016-0.16 0.024-0.036 0.031-0.004 0.024 0.106-0.010 0.153-0.067 0.225-0.117 0.145zM4.558 20.77c0.028-0.153 0.106-0.276 0.106-0.167 0 0.032-0.016 0.068-0.034 0.080s-0.025 0.069-0.013 0.127c0.016 0.079 0.008 0.105-0.032 0.105-0.043 0-0.048-0.028-0.027-0.145zM5.807 20.788c0.002-0.041 0.010-0.050 0.021-0.021 0.010 0.026 0.009 0.056-0.003 0.068s-0.020-0.009-0.019-0.047zM5.804 20.629c0-0.019 0.024-0.035 0.053-0.035s0.053 0.006 0.053 0.014c0 0.008-0.024 0.023-0.053 0.035s-0.053 0.005-0.053-0.014zM6.035 20.595c-0.012-0.020-0.005-0.036 0.016-0.036s0.038 0.016 0.038 0.036c0 0.020-0.007 0.036-0.016 0.036s-0.026-0.016-0.038-0.036zM4.653 20.5c-0.013-0.013-0.022-0.065-0.020-0.116 0.003-0.060 0.010-0.071 0.020-0.030 0.009 0.034 0.031 0.062 0.049 0.062s0.033 0.024 0.033 0.053c0 0.056-0.042 0.071-0.083 0.030zM5.804 20.221c0-0.029 0.016-0.053 0.034-0.053s0.025 0.024 0.014 0.053c-0.011 0.029-0.027 0.053-0.035 0.053s-0.014-0.024-0.014-0.053zM4.7 19.972c0-0.029 0.016-0.053 0.036-0.053s0.036 0.024 0.036 0.053c0 0.029-0.016 0.053-0.036 0.053s-0.036-0.024-0.036-0.053zM5.786 19.989c0.012-0.020 0.046-0.036 0.075-0.036s0.043 0.016 0.031 0.036c-0.012 0.020-0.046 0.036-0.075 0.036s-0.043-0.016-0.031-0.036zM4.7 19.833c0-0.007 0.024-0.033 0.053-0.058 0.044-0.036 0.053-0.034 0.053 0.013 0 0.032-0.024 0.058-0.053 0.058s-0.053-0.006-0.053-0.013zM6.437 19.598c0.009-0.059 0.022-0.107 0.029-0.107s0.014 0.048 0.014 0.107c0 0.059-0.013 0.107-0.029 0.107s-0.022-0.048-0.014-0.107zM6.432 19.295c0.011-0.029 0.027-0.053 0.035-0.053s0.014 0.024 0.014 0.053c0 0.029-0.016 0.053-0.034 0.053s-0.025-0.024-0.014-0.053zM4.906 19.145c-0.021-0.079 0.026-0.119 0.106-0.091 0.061 0.021 0.056 0.081-0.006 0.081-0.028 0-0.057 0.020-0.065 0.044s-0.024 0.009-0.035-0.033zM4.771 18.814c0-0.020 0.017-0.036 0.038-0.036s0.028 0.016 0.016 0.036c-0.012 0.020-0.029 0.036-0.038 0.036s-0.016-0.016-0.016-0.036zM5.786 17.711c0.012-0.020 0.029-0.036 0.038-0.036s0.016 0.016 0.016 0.036c0 0.020-0.017 0.036-0.038 0.036s-0.028-0.016-0.016-0.036zM4.842 17.194c0-0.049 0.014-0.089 0.031-0.089s0.031 0.040 0.031 0.089c0 0.049-0.014 0.089-0.031 0.089s-0.031-0.040-0.031-0.089zM6.142 17.033c0.012-0.020 0.037-0.027 0.056-0.016 0.049 0.031 0.040 0.052-0.022 0.052-0.031 0-0.045-0.016-0.033-0.036zM4.807 16.642c0-0.020 0.016-0.036 0.036-0.036s0.036 0.016 0.036 0.036c0 0.020-0.016 0.036-0.036 0.036s-0.036-0.016-0.036-0.036zM4.811 16.251c-0.005-0.147-0.024-0.531-0.043-0.855s-0.032-0.674-0.030-0.78c0.002-0.106-0.012-0.202-0.031-0.214-0.020-0.012-0.013-0.040 0.015-0.067 0.042-0.039 0.049-0.023 0.049 0.102 0 0.082 0.017 0.495 0.038 0.918s0.032 0.858 0.024 0.966c-0.013 0.182-0.014 0.177-0.023-0.071zM2.225 14.662c-0.241-0.033-1.010-0.242-0.994-0.269 0.010-0.016-0.006-0.020-0.036-0.009-0.055 0.021-0.556-0.132-0.729-0.222-0.051-0.027-0.118-0.050-0.147-0.052-0.033-0.002-0.037-0.010-0.012-0.020 0.023-0.009 0.111 0.014 0.196 0.051 0.23 0.102 0.279 0.115 0.279 0.078 0-0.019-0.043-0.045-0.096-0.058s-0.137-0.045-0.187-0.072l-0.091-0.048 0.089-0.001c0.049-0 0.072-0.013 0.052-0.027-0.066-0.047-0.036-0.129 0.055-0.151 0.049-0.012 0.087-0.040 0.085-0.064-0.009-0.107-0.017-0.12-0.067-0.102-0.029 0.011-0.074-0.010-0.101-0.049s-0.059-0.059-0.072-0.046-0.024 0.004-0.024-0.020c0-0.024-0.014-0.035-0.030-0.025s-0.075-0.028-0.131-0.086l-0.1-0.105 0.105 0.030c0.058 0.017 0.231 0.089 0.386 0.16s0.299 0.123 0.32 0.114c0.021-0.009-0.001-0.028-0.049-0.042-0.072-0.022-0.077-0.030-0.026-0.048 0.049-0.017 0.038-0.030-0.049-0.063-0.095-0.036-0.104-0.034-0.068 0.010 0.023 0.028 0.033 0.051 0.021 0.051-0.045 0-0.235-0.132-0.217-0.15 0.011-0.011-0.006-0.029-0.036-0.040s-0.055-0.005-0.055 0.015c0 0.020-0.018 0.026-0.039 0.012-0.073-0.045 0.049-0.084 0.127-0.041 0.040 0.022 0.081 0.042 0.091 0.044s0.154 0.047 0.322 0.099c0.364 0.114 0.949 0.202 1.316 0.198 0.164-0.002 0.233-0.012 0.179-0.027l-0.088-0.025 0.082-0.057c0.078-0.054 0.079-0.060 0.017-0.096-0.053-0.031-0.056-0.045-0.017-0.070 0.034-0.023 0.037-0.039 0.008-0.057-0.022-0.014-0.031-0.040-0.019-0.058s-0.001-0.033-0.026-0.034c-0.038-0.001-0.038-0.006-0-0.030 0.067-0.042-0.036-0.12-0.22-0.167l-0.147-0.037-0.024-0.23c-0.034-0.324-0.020-0.354 0.165-0.354h0.154l-0.001-0.369c-0.001-0.203 0.009-0.385 0.021-0.404 0.013-0.020-0.137-0.068-0.36-0.114-0.894-0.186-1.551-0.391-1.419-0.441 0.043-0.016 0.055-0.010 0.039 0.020-0.012 0.024 0.007 0.007 0.044-0.038 0.044-0.054 0.088-0.074 0.127-0.059 0.033 0.013 0.053 0.036 0.043 0.051-0.020 0.032 0.159 0.085 0.188 0.055 0.011-0.011-0.008-0.020-0.041-0.020s-0.076-0.040-0.094-0.090c-0.019-0.049-0.091-0.123-0.159-0.164s-0.125-0.081-0.125-0.090c0-0.009 0.016-0.007 0.035 0.005s0.044-0.018 0.057-0.067c0.027-0.106 0.124-0.087 0.112 0.022-0.004 0.040 0.011 0.079 0.033 0.088 0.029 0.010 0.036-0.028 0.022-0.13-0.017-0.126-0.011-0.144 0.051-0.144 0.103 0 0.119-0.033 0.054-0.109-0.042-0.049-0.065-0.056-0.084-0.025s-0.034 0.024-0.051-0.021c-0.015-0.040-0.002-0.086 0.034-0.122 0.054-0.054 0.058-0.053 0.059 0.012 0.001 0.069 0.002 0.069 0.041 0.001 0.030-0.052 0.030-0.073-0.001-0.083-0.023-0.008-0.041-0.075-0.041-0.15s-0.012-0.143-0.027-0.151c-0.015-0.008-0.007-0.010 0.018-0.004s0.044-0.009 0.044-0.034c0-0.025-0.020-0.067-0.044-0.093-0.036-0.038-0.036-0.043 0-0.023 0.042 0.024 0.065-0.049 0.045-0.139-0.004-0.020-0.012-0.1-0.018-0.178s-0.022-0.17-0.036-0.205c-0.018-0.044-0.009-0.062 0.031-0.062 0.031 0 0.057-0.024 0.057-0.053s0.024-0.053 0.053-0.053c0.029 0 0.053 0.016 0.053 0.036s0.024 0.036 0.054 0.036c0.063 0 0.046-0.103-0.059-0.349-0.1-0.234-0.176-0.562-0.184-0.789-0.006-0.174 0.002-0.202 0.051-0.189 0.032 0.008 0.088 0.074 0.125 0.146 0.086 0.169 0.18 0.268 0.2 0.209 0.011-0.032 0.032-0.030 0.081 0.010 0.064 0.052 0.064 0.050 0.006-0.035-0.099-0.144-0.069-0.168 0.046-0.035l0.106 0.123-0.125-0.279c-0.084-0.188-0.134-0.365-0.153-0.544-0.051-0.475 0.078-0.394 0.282 0.178 0.027 0.076 0.070 0.146 0.094 0.155s0.045 0.034 0.045 0.055c0 0.021 0.052 0.143 0.115 0.272 0.141 0.287 0.164 0.221 0.066-0.189-0.040-0.168-0.081-0.402-0.092-0.522l-0.020-0.217 0.075 0.070c0.041 0.038 0.071 0.091 0.066 0.118-0.009 0.052 0.057 0.319 0.111 0.449 0.045 0.107 0.080 0.101 0.136-0.025 0.026-0.058 0.078-0.115 0.117-0.128 0.125-0.040 0.174 0.043 0.174 0.298 0 0.319 0.133 0.744 0.4 1.277 0.202 0.404 0.257 0.472 0.318 0.387 0.013-0.018 0.041 0.038 0.063 0.125 0.114 0.46 0.175 0.649 0.177 0.556 0.002-0.064 0.018-0.091 0.043-0.076 0.027 0.017 0.031-0.002 0.013-0.060-0.014-0.047-0.014-0.073 0.001-0.059s0.033 0.062 0.040 0.107 0.046 0.242 0.086 0.437c0.040 0.196 0.077 0.47 0.080 0.61s0.019 0.247 0.033 0.239c0.014-0.008 0.016 0.109 0.004 0.262s-0.004 0.414 0.017 0.58c0.061 0.478 0.083 1.036 0.047 1.211-0.029 0.141-0.033 0.147-0.037 0.047-0.002-0.063-0.018-0.122-0.034-0.132-0.037-0.023-0.076 0.409-0.076 0.835 0 0.291-0.005 0.313-0.080 0.337-0.091 0.029-1.163 0.055-1.326 0.032zM0.88 13.915c-0.012-0.012-0.043-0.013-0.068-0.003-0.028 0.011-0.020 0.020 0.021 0.021 0.038 0.002 0.059-0.007 0.047-0.019zM1.201 13.63c-0.012-0.012-0.043-0.013-0.068-0.003-0.028 0.011-0.020 0.020 0.022 0.021 0.038 0.002 0.059-0.007 0.047-0.019zM1.139 11.32c0-0.027-0.185-0.113-0.303-0.141-0.079-0.019-0.097-0.015-0.068 0.015 0.022 0.022 0.074 0.043 0.116 0.046s0.077 0.017 0.077 0.031c0 0.014 0.028 0.033 0.062 0.042 0.095 0.025 0.116 0.026 0.116 0.008zM3.443 10.44c-0.011-0.028-0.020-0.020-0.022 0.021-0.002 0.038 0.007 0.059 0.019 0.047s0.013-0.043 0.003-0.068zM0.178 14.043c-0.032-0.021-0.036-0.035-0.011-0.035 0.023-0 0.052 0.015 0.064 0.035 0.027 0.044 0.015 0.044-0.053 0zM4.738 14.022c0.002-0.041 0.010-0.050 0.021-0.021 0.010 0.026 0.009 0.056-0.003 0.068s-0.020-0.009-0.019-0.047zM0.249 13.97c0-0.021 0.016-0.028 0.036-0.016s0.036 0.029 0.036 0.038c0 0.009-0.016 0.016-0.036 0.016s-0.036-0.017-0.036-0.038zM0.372 13.335c0.011-0.017-0.028-0.051-0.086-0.075s-0.124-0.066-0.146-0.093c-0.030-0.036 0.224 0.082 0.316 0.148 0.006 0.004-0.015 0.017-0.046 0.029s-0.048 0.008-0.038-0.009zM0 13.080c0-0.021 0.016-0.028 0.036-0.016s0.036 0.029 0.036 0.038c0 0.009-0.016 0.016-0.036 0.016s-0.036-0.017-0.036-0.038zM4.311 10.64c0.002-0.041 0.010-0.050 0.021-0.021 0.010 0.026 0.009 0.056-0.003 0.068s-0.020-0.009-0.019-0.047zM1.285 8.112c0.002-0.041 0.010-0.050 0.022-0.021 0.010 0.026 0.009 0.056-0.003 0.068s-0.020-0.009-0.019-0.047zM1.211 7.972c0-0.029 0.027-0.040 0.071-0.028 0.039 0.010 0.071 0.023 0.071 0.028s-0.032 0.018-0.071 0.028c-0.044 0.012-0.071 0.001-0.071-0.028zM4.071 7.934c-0.012-0.031-0.004-0.073 0.017-0.094 0.027-0.027 0.033-0.017 0.019 0.035-0.013 0.051 0 0.078 0.046 0.090 0.061 0.016 0.061 0.017 0.002 0.021-0.035 0.002-0.073-0.021-0.085-0.052zM21.388 7.503c-0.013-0.013-0.024-0.040-0.024-0.061 0-0.022 0.017-0.020 0.042 0.005 0.023 0.023 0.034 0.050 0.024 0.061s-0.029 0.008-0.042-0.005zM4.166 7.064c0-0.020 0.015-0.036 0.034-0.036s0.043 0.016 0.056 0.036c0.012 0.020-0.003 0.036-0.034 0.036s-0.056-0.016-0.056-0.036zM1.816 6.991c0-0.021-0.016-0.028-0.036-0.016s-0.035-0.020-0.035-0.078c0-0.078 0.008-0.088 0.035-0.047 0.029 0.045 0.035 0.042 0.035-0.015 0.001-0.094 0.022-0.061 0.048 0.077 0.013 0.067 0.007 0.116-0.013 0.116s-0.035-0.017-0.035-0.038zM21.262 6.974c0.014-0.148-0.003-0.193-0.067-0.173-0.047 0.015-0.051 0.012-0.014-0.014 0.030-0.021 0.039-0.063 0.024-0.11-0.013-0.042-0.016-0.076-0.007-0.076s0.044 0.082 0.078 0.181c0.045 0.136 0.050 0.191 0.020 0.222s-0.039 0.023-0.034-0.030zM1.643 6.708c0-0.049 0.008-0.069 0.018-0.045s0.010 0.065 0 0.089c-0.010 0.024-0.018 0.004-0.018-0.045zM1.709 6.601c0-0.039 0.013-0.071 0.028-0.071s0.030 0.032 0.033 0.071c0.003 0.039-0.010 0.071-0.028 0.071s-0.033-0.032-0.033-0.071zM3.578 6.281c-0.012-0.020 0.003-0.036 0.034-0.036s0.055 0.016 0.055 0.036c0 0.020-0.015 0.036-0.034 0.036s-0.043-0.016-0.055-0.036zM1.735 6.207c0.010-0.037 0.032-0.059 0.049-0.049 0.047 0.029 0.038 0.076-0.018 0.098-0.035 0.013-0.044-0.002-0.032-0.049zM20.983 6.147c-0.012-0.034-0.029-0.078-0.037-0.098s0.010-0.005 0.041 0.034c0.056 0.069 0.073 0.127 0.037 0.127-0.010 0-0.029-0.028-0.041-0.062zM3.561 6.049c-0.044-0.053-0.045-0.068-0.005-0.081s0.041-0.022 0-0.050c-0.033-0.023-0.020-0.026 0.040-0.010 0.113 0.031 0.177 0.087 0.099 0.087-0.032 0-0.063 0.027-0.069 0.059-0.010 0.053-0.017 0.053-0.065-0.006zM3.577 5.808c-0.079-0.092-0.092-0.132-0.036-0.11 0.030 0.012 0.055 0.035 0.055 0.053s0.025 0.032 0.055 0.032c0.031 0 0.046 0.016 0.034 0.036-0.029 0.046-0.062 0.043-0.108-0.010zM3.874 5.794c0.026-0.010 0.056-0.009 0.068 0.003s-0.009 0.020-0.047 0.019c-0.041-0.002-0.050-0.010-0.022-0.021zM3.207 5.619c0.002-0.041 0.010-0.050 0.022-0.021 0.010 0.026 0.009 0.056-0.003 0.068s-0.020-0.009-0.019-0.047zM3.632 5.638c0-0.021 0.016-0.028 0.036-0.016s0.036 0.029 0.036 0.038c0 0.009-0.016 0.016-0.036 0.016s-0.036-0.017-0.036-0.038zM2.154 5.533c-0.012-0.020-0.005-0.036 0.016-0.036s0.038 0.016 0.038 0.036c0 0.020-0.007 0.036-0.016 0.036s-0.026-0.016-0.038-0.036zM3.561 5.498c0-0.039-0.003-0.083-0.006-0.098s0.025-0.031 0.062-0.035c0.068-0.008 0.068-0.008-0 0.021-0.047 0.020-0.056 0.037-0.027 0.055 0.051 0.032 0.056 0.129 0.007 0.129-0.020 0-0.036-0.032-0.036-0.071zM3.24 5.483c0-0.028-0.020-0.059-0.045-0.068-0.027-0.011-0.019-0.019 0.018-0.021 0.040-0.002 0.062 0.023 0.062 0.068 0 0.039-0.008 0.071-0.018 0.071s-0.018-0.023-0.018-0.050zM4.006 5.213c-0.012-0.020 0.003-0.036 0.034-0.036s0.056 0.016 0.056 0.036c0 0.020-0.015 0.036-0.034 0.036s-0.043-0.016-0.056-0.036zM3.777 4.942c-0.002-0.099 0.007-0.109 0.087-0.094 0.127 0.024 0.12 0.091-0.007 0.077-0.014-0.001-0.037 0.027-0.051 0.062-0.019 0.049-0.026 0.037-0.028-0.046zM4.024 2.514c0-0.039 0.257-0.226 0.279-0.203 0.009 0.009-0.001 0.036-0.022 0.061-0.057 0.068-0.257 0.179-0.257 0.142z"></path>
</svg>
