<!-- Generated by IcoMoon.io -->
<svg version="1.1" xmlns="http://www.w3.org/2000/svg" width="37" height="32" viewBox="0 0 37 32">
<title>PureNOvationLogo_Serif_ODarkGrey2</title>
<path fill="none" stroke-linejoin="miter" stroke-linecap="butt" stroke-miterlimit="10" stroke-width="1.0809" stroke="#000" d="M8.323 11.301h0.108l3.265 5.272 3.922-2.395-7.080-11.525h-7.782v3.729l2.432 0.108 0.054 19.888c0 0.811-0.3 1.289-0.919 1.405l-1.784 0.162v3.513h10.592v-3.675l-2.81-0.162z"></path>
<path fill="none" stroke-linejoin="miter" stroke-linecap="butt" stroke-miterlimit="10" stroke-width="1.0809" stroke="#000" d="M12.906 18.519l3.883-2.394 2.403 3.898-3.883 2.394-2.403-3.898z"></path>
<path fill="none" stroke-linejoin="miter" stroke-linecap="butt" stroke-miterlimit="10" stroke-width="1.0809" stroke="#000" d="M31.021 0.979l-9.511 9.188s5.837-0.35 5.62 0.81c-0.648 3.513-3.297 11.998-5.86 12.117-0.085-0.011-0.126-0.122-0.126-0.122l-0.662-0.97-3.793 2.354s2.099 3.855 3.974 6.651c0.105 0.155 0.252 0.451 0.306 0.451 4.107-0.27 9.025-15.889 9.62-19.294 0.108-1.729 5.351 3.134 5.351 3.134z"></path>
<path fill="none" stroke-linejoin="miter" stroke-linecap="butt" stroke-miterlimit="10" stroke-width="1.0809" stroke="#000" d="M10.485 19.678l0.514-0.189 2.324 3.891q-1.418 0.743-2.838 0.946z"></path>
</svg>
