<?xml version="1.0" encoding="UTF-8" standalone="no"?>
<!-- Created with Inkscape (http://www.inkscape.org/) -->

<svg
   xmlns:dc="http://purl.org/dc/elements/1.1/"
   xmlns:cc="http://creativecommons.org/ns#"
   xmlns:rdf="http://www.w3.org/1999/02/22-rdf-syntax-ns#"
   xmlns:svg="http://www.w3.org/2000/svg"
   xmlns="http://www.w3.org/2000/svg"
   xmlns:sodipodi="http://sodipodi.sourceforge.net/DTD/sodipodi-0.dtd"
   xmlns:inkscape="http://www.inkscape.org/namespaces/inkscape"
   width="619.57141"
   height="516.00006"
   viewBox="0 0 619.57141 516.00006"
   version="1.1"
   id="SVGRoot"
   inkscape:version="0.92.4 (5da689c313, 2019-01-14)"
   sodipodi:docname="brain.svg">
  <defs
     id="defs6191" />
  <sodipodi:namedview
     id="base"
     pagecolor="#ffffff"
     bordercolor="#666666"
     borderopacity="1.0"
     inkscape:pageopacity="0.0"
     inkscape:pageshadow="2"
     inkscape:zoom="0.68535827"
     inkscape:cx="276.66064"
     inkscape:cy="62.044203"
     inkscape:document-units="px"
     inkscape:current-layer="layer1"
     showgrid="true"
     inkscape:window-width="1920"
     inkscape:window-height="1001"
     inkscape:window-x="-9"
     inkscape:window-y="-9"
     inkscape:window-maximized="1"
     fit-margin-top="0"
     fit-margin-left="0"
     fit-margin-right="0"
     fit-margin-bottom="0">
    <inkscape:grid
       type="xygrid"
       id="grid6749"
       color="#3f3fff"
       opacity="0"
       spacingx="16"
       spacingy="12"
       originx="-640"
       originy="-309.14285" />
  </sodipodi:namedview>
  <metadata
     id="metadata6194">
    <rdf:RDF>
      <cc:Work
         rdf:about="">
        <dc:format>image/svg+xml</dc:format>
        <dc:type
           rdf:resource="http://purl.org/dc/dcmitype/StillImage" />
        <dc:title></dc:title>
      </cc:Work>
    </rdf:RDF>
  </metadata>
  <g
     inkscape:label="Layer 1"
     inkscape:groupmode="layer"
     id="layer1"
     transform="translate(-640,-254.85712)">
    <g
       id="g1700"
       transform="translate(45.57141,-45.142913)">
      <g
         style="fill:#6eb5ff;fill-opacity:1;stroke:none"
         id="g1674">
        <path
           style="fill:#6eb5ff;fill-opacity:1;stroke:none;stroke-width:99.7568512;stroke-miterlimit:4;stroke-dasharray:none;stroke-opacity:1"
           d="m 800,300.00003 c 44.32,0 80,43.83543 80,98.28572 v 319.42862 c 0,54.45029 -35.68,98.28572 -80,98.28572 -44.32,0 -80,-43.83543 -80,-98.28572 V 398.28575 c 0,-54.45029 35.68,-98.28572 80,-98.28572 z"
           id="rect1570"
           inkscape:connector-curvature="0" />
        <path
           style="fill:#6eb5ff;fill-opacity:1;stroke:none;stroke-width:90;stroke-miterlimit:4;stroke-dasharray:none;stroke-opacity:1"
           d="m 810.14288,448.71432 a 80,80 0 0 1 -80,80 80,80 0 0 1 -80,-80 80,80 0 0 1 80,-80 80,80 0 0 1 80,80 z"
           id="path1587"
           inkscape:connector-curvature="0" />
        <path
           style="fill:#6eb5ff;fill-opacity:1;stroke:none;stroke-width:90;stroke-miterlimit:4;stroke-dasharray:none;stroke-opacity:1"
           d="m 804,682.00006 a 80,80 0 0 1 -80,80 80,80 0 0 1 -80,-80 80,80 0 0 1 80,-80 80,80 0 0 1 80,80 z"
           id="path1587-8"
           inkscape:connector-curvature="0" />
        <path
           style="fill:#6eb5ff;fill-opacity:1;stroke:none;stroke-width:90;stroke-miterlimit:4;stroke-dasharray:none;stroke-opacity:1"
           d="m 760,514.71436 a 80,80 0 0 1 -80,80 80,80 0 0 1 -80,-80 80,80 0 0 1 80,-80 80,80 0 0 1 80,80 z"
           id="path1587-0"
           inkscape:connector-curvature="0" />
        <path
           style="fill:#6eb5ff;fill-opacity:1;stroke:none;stroke-width:90;stroke-miterlimit:4;stroke-dasharray:none;stroke-opacity:1"
           d="m 754.42859,597.14294 a 80,80 0 0 1 -80,80 80,80 0 0 1 -80,-80 80,80 0 0 1 80,-80 80,80 0 0 1 80,80 z"
           id="path1587-0-4"
           inkscape:connector-curvature="0" />
      </g>
      <g
         style="fill:#6eb5ff;fill-opacity:1"
         id="g1681">
        <path
           id="rect1570-2"
           d="m 988,300.00003 c 44.32,0 80,43.83543 80,98.28572 v 319.42862 c 0,54.45029 -35.68,98.28572 -80,98.28572 -44.32,0 -80,-43.83543 -80,-98.28572 V 398.28575 c 0,-54.45029 35.68,-98.28572 80,-98.28572 z"
           style="fill:#6eb5ff;fill-opacity:1;stroke:none;stroke-width:99.7568512;stroke-miterlimit:4;stroke-dasharray:none;stroke-opacity:1"
           inkscape:connector-curvature="0" />
        <path
           id="path1587-2"
           d="m 1138.2859,449.71432 a 80,80 0 0 1 -80,80 80,80 0 0 1 -80.00001,-80 80,80 0 0 1 80.00001,-80 80,80 0 0 1 80,80 z"
           style="fill:#6eb5ff;fill-opacity:1;stroke:none;stroke-width:90;stroke-miterlimit:4;stroke-dasharray:none;stroke-opacity:1"
           inkscape:connector-curvature="0" />
        <path
           id="path1587-9"
           d="m 1144.1428,684.71436 a 80,80 0 0 1 -80,80 80,80 0 0 1 -79.99998,-80 80,80 0 0 1 79.99998,-80 80,80 0 0 1 80,80 z"
           style="fill:#6eb5ff;fill-opacity:1;stroke:none;stroke-width:90;stroke-miterlimit:4;stroke-dasharray:none;stroke-opacity:1"
           inkscape:connector-curvature="0" />
        <path
           id="path1587-0-1"
           d="m 1187.5714,515.42865 a 80,80 0 0 1 -80,80 80,80 0 0 1 -80,-80 80,80 0 0 1 80,-80 80,80 0 0 1 80,80 z"
           style="fill:#6eb5ff;fill-opacity:1;stroke:none;stroke-width:90;stroke-miterlimit:4;stroke-dasharray:none;stroke-opacity:1"
           inkscape:connector-curvature="0" />
        <path
           id="path1587-0-1-1"
           d="m 1214,597.85724 a 80,80 0 0 1 -80,80 80,80 0 0 1 -80,-80 80,80 0 0 1 80,-80 80,80 0 0 1 80,80 z"
           style="fill:#6eb5ff;fill-opacity:1;stroke:none;stroke-width:90;stroke-miterlimit:4;stroke-dasharray:none;stroke-opacity:1"
           inkscape:connector-curvature="0" />
      </g>
    </g>
  </g>
</svg>
