<?xml version="1.0" encoding="UTF-8" standalone="no"?>
<!-- Created with Inkscape (http://www.inkscape.org/) -->

<svg
   xmlns:dc="http://purl.org/dc/elements/1.1/"
   xmlns:cc="http://creativecommons.org/ns#"
   xmlns:rdf="http://www.w3.org/1999/02/22-rdf-syntax-ns#"
   xmlns:svg="http://www.w3.org/2000/svg"
   xmlns="http://www.w3.org/2000/svg"
   xmlns:sodipodi="http://sodipodi.sourceforge.net/DTD/sodipodi-0.dtd"
   xmlns:inkscape="http://www.inkscape.org/namespaces/inkscape"
   width="171.36031"
   height="105.09353"
   viewBox="0 0 171.36031 105.09353"
   version="1.1"
   id="SVGRoot"
   inkscape:version="0.92.4 (5da689c313, 2019-01-14)"
   sodipodi:docname="site-map.svg">
  <defs
     id="defs6191" />
  <sodipodi:namedview
     id="base"
     pagecolor="#ffffff"
     bordercolor="#666666"
     borderopacity="1.0"
     inkscape:pageopacity="0.0"
     inkscape:pageshadow="2"
     inkscape:zoom="1.3707165"
     inkscape:cx="329.8648"
     inkscape:cy="39.5082"
     inkscape:document-units="px"
     inkscape:current-layer="layer1"
     showgrid="false"
     inkscape:window-width="1920"
     inkscape:window-height="1001"
     inkscape:window-x="-9"
     inkscape:window-y="-9"
     inkscape:window-maximized="1"
     fit-margin-top="0"
     fit-margin-left="0"
     fit-margin-right="0"
     fit-margin-bottom="0">
    <inkscape:grid
       type="xygrid"
       id="grid6749"
       color="#3f3fff"
       opacity="0"
       spacingx="16"
       spacingy="12"
       originx="-267.23991"
       originy="-540.75751" />
  </sodipodi:namedview>
  <metadata
     id="metadata6194">
    <rdf:RDF>
      <cc:Work
         rdf:about="">
        <dc:format>image/svg+xml</dc:format>
        <dc:type
           rdf:resource="http://purl.org/dc/dcmitype/StillImage" />
        <dc:title></dc:title>
      </cc:Work>
    </rdf:RDF>
  </metadata>
  <g
     inkscape:label="Layer 1"
     inkscape:groupmode="layer"
     id="layer1"
     transform="translate(-267.2399,-434.14899)">
    <g
       id="g927"
       style="fill:#6eb5ff;fill-opacity:1">
      <path
         style="fill:#6eb5ff;fill-opacity:1;stroke:none;stroke-width:11.48793507;stroke-miterlimit:4;stroke-dasharray:none"
         d="m 329.35267,434.14899 h 47.13476 c 0.91927,0 1.65934,0.74006 1.65934,1.65934 v 34.22806 c 0,0.91928 -0.74007,1.65935 -1.65934,1.65935 h -47.13476 c -0.91928,0 -1.65934,-0.74007 -1.65934,-1.65935 v -34.22806 c 0,-0.91928 0.74006,-1.65934 1.65934,-1.65934 z"
         id="rect830"
         inkscape:connector-curvature="0" />
      <path
         style="fill:#6eb5ff;fill-opacity:1;stroke:none;stroke-width:11.48793507;stroke-miterlimit:4;stroke-dasharray:none"
         d="m 389.8061,501.69577 h 47.13476 c 0.91927,0 1.65934,0.74007 1.65934,1.65935 v 34.22805 c 0,0.91928 -0.74007,1.65935 -1.65934,1.65935 H 389.8061 c -0.91928,0 -1.65934,-0.74007 -1.65934,-1.65935 v -34.22805 c 0,-0.91928 0.74006,-1.65935 1.65934,-1.65935 z"
         id="rect830-5"
         inkscape:connector-curvature="0" />
      <path
         style="fill:#6eb5ff;fill-opacity:1;stroke:none;stroke-width:11.48793507;stroke-miterlimit:4;stroke-dasharray:none"
         d="m 329.35267,501.69574 h 47.13476 c 0.91927,0 1.65934,0.74007 1.65934,1.65935 v 34.22805 c 0,0.91928 -0.74007,1.65935 -1.65934,1.65935 h -47.13476 c -0.91928,0 -1.65934,-0.74007 -1.65934,-1.65935 v -34.22805 c 0,-0.91928 0.74006,-1.65935 1.65934,-1.65935 z"
         id="rect830-8"
         inkscape:connector-curvature="0" />
      <path
         style="fill:#6eb5ff;fill-opacity:1;stroke:none;stroke-width:11.48793507;stroke-miterlimit:4;stroke-dasharray:none"
         d="M 268.89924,501.69577 H 316.034 c 0.91927,0 1.65934,0.74007 1.65934,1.65935 v 34.22805 c 0,0.91928 -0.74007,1.65935 -1.65934,1.65935 h -47.13476 c -0.91928,0 -1.65934,-0.74007 -1.65934,-1.65935 v -34.22805 c 0,-0.91928 0.74006,-1.65935 1.65934,-1.65935 z"
         id="rect830-3"
         inkscape:connector-curvature="0" />
      <path
         style="fill:#6eb5ff;fill-opacity:1;stroke:none;stroke-width:9.13834572;stroke-miterlimit:4;stroke-dasharray:none"
         d="m 295.13533,481.69574 h 115.56944 c 2.25396,0 4.06852,0.19099 4.06852,0.42824 v 8.83348 c 0,0.23724 -1.81456,0.42824 -4.06852,0.42824 H 295.13533 c -2.25396,0 -4.06853,-0.191 -4.06853,-0.42824 v -8.83348 c 0,-0.23725 1.81457,-0.42824 4.06853,-0.42824 z"
         id="rect830-8-0"
         inkscape:connector-curvature="0" />
      <path
         transform="rotate(90)"
         style="fill:#6eb5ff;fill-opacity:1;stroke:none;stroke-width:4.93035221;stroke-miterlimit:4;stroke-dasharray:none"
         d="m 460.38854,-357.76501 h 33.6406 c 0.6561,0 1.18429,0.19099 1.18429,0.42823 v 8.83348 c 0,0.23725 -0.52819,0.42824 -1.18429,0.42824 h -33.6406 c -0.65609,0 -1.18429,-0.19099 -1.18429,-0.42824 v -8.83348 c 0,-0.23724 0.5282,-0.42823 1.18429,-0.42823 z"
         id="rect830-8-0-3"
         inkscape:connector-curvature="0" />
      <path
         transform="rotate(90)"
         style="fill:#6eb5ff;fill-opacity:1;stroke:none;stroke-width:2.51646304;stroke-miterlimit:4;stroke-dasharray:none"
         d="m 486.00426,-414.77328 h 8.76373 c 0.17092,0 0.30852,0.19099 0.30852,0.42823 v 8.83348 c 0,0.23725 -0.1376,0.42824 -0.30852,0.42824 h -8.76373 c -0.17092,0 -0.30852,-0.19099 -0.30852,-0.42824 v -8.83348 c 0,-0.23724 0.1376,-0.42823 0.30852,-0.42823 z"
         id="rect830-8-0-3-8"
         inkscape:connector-curvature="0" />
      <path
         transform="rotate(90)"
         style="fill:#6eb5ff;fill-opacity:1;stroke:none;stroke-width:2.51646304;stroke-miterlimit:4;stroke-dasharray:none"
         d="m 486.00426,-300.77325 h 8.76373 c 0.17092,0 0.30852,0.19099 0.30852,0.42823 v 8.83348 c 0,0.23725 -0.1376,0.42824 -0.30852,0.42824 h -8.76373 c -0.17092,0 -0.30852,-0.19099 -0.30852,-0.42824 v -8.83348 c 0,-0.23724 0.1376,-0.42823 0.30852,-0.42823 z"
         id="rect830-8-0-3-8-2"
         inkscape:connector-curvature="0" />
    </g>
  </g>
</svg>
